<?xml version="1.0" encoding="utf-8"?>
<!-- Generator: Adobe Illustrator 28.3.0, SVG Export Plug-In . SVG Version: 6.00 Build 0)  -->
<svg version="1.1" id="Layer_1" xmlns="http://www.w3.org/2000/svg" xmlns:xlink="http://www.w3.org/1999/xlink" x="0px" y="0px"
	 viewBox="15 24 222 60" style="enable-background:new 15 24 222 60;" xml:space="preserve">
<style type="text/css">
	.st0{fill:#ffffff;}
	.st1{fill:#72A4D7;}
</style>
<g>
	<path class="st0" d="M26.16,74.4c-2.79,0-5.08-1.78-5.08-5.48V58.19H18v-2.1h3.08v-4.25l2.33-0.91v5.15h7.41v2.1h-7.41v10.62
		c0,2.32,1.36,3.41,3.19,3.41c1.65,0,3.08-0.83,4.3-1.96l0.07,0.04l-0.57,2.65C29.42,73.68,27.95,74.4,26.16,74.4z"/>
	<path class="st0" d="M35.54,61.64V74h-2.4V47.53l2.4-0.91v13.13c1.97-2.65,3.97-4.07,6.69-4.07c3.55,0,6.3,2.47,6.3,7.07V74h-2.36
		V62.98c0-3.37-1.86-5.11-4.51-5.11C39.51,57.86,37.79,58.99,35.54,61.64z"/>
	<path class="st0" d="M59.87,74.4c-5.41,0-9.02-3.66-9.02-9.39c0-5.04,3.47-9.43,8.52-9.43c5.3,0,7.98,4.39,7.98,9.21
		c0,0.36-0.04,0.87-0.07,1.23h-14c0.43,3.99,3.11,6.16,6.84,6.16c2.33,0,4.69-0.98,6.52-2.21l0.07,0.04l-0.86,2.68
		C64.13,73.71,62.31,74.4,59.87,74.4z M53.21,64.17h11.74c-0.18-3.66-2.11-6.45-5.69-6.45C55.86,57.72,53.46,60.62,53.21,64.17z"/>
	<path class="st0" d="M85.42,74.29c-2.01,0-3.83-0.65-5.62-1.67L78.23,74h-0.47V47.53l2.4-0.91v12.33c2.08-2.14,4.04-3.23,6.62-3.23
		c4.33,0,8.02,3.63,8.02,8.92C94.8,70.48,90.51,74.29,85.42,74.29z M80.16,60.66v9.94c1.75,1.05,3.44,1.6,5.23,1.6
		c3.97,0,7.02-3.19,7.02-7.4c0-4.28-2.9-6.89-6.27-6.89C84.03,57.9,82.23,58.81,80.16,60.66z"/>
	<path class="st0" d="M110.19,70.3c-1.97,2.68-3.97,4.1-6.7,4.1c-3.54,0-6.3-2.43-6.3-7.07V56.09h2.36v11.06
		c0,3.34,1.86,5.08,4.51,5.08c2.11,0,3.87-1.13,6.12-3.77V56.09h2.36V74h-2.36V70.3z"/>
	<path class="st0" d="M129.97,71.14c-2.08,2.14-4.01,3.23-6.59,3.23c-4.37,0-8.2-3.59-8.2-9.03c0-5.77,4.19-9.54,8.88-9.54
		c2.11,0,4.04,0.76,5.91,2.28V47.53l2.36-0.91V74h-2.36V71.14z M123.96,72.19c2.11,0,3.94-0.91,6.01-2.79v-9.32
		c-1.9-1.41-3.65-2.14-5.58-2.14c-3.83,0-6.77,3.12-6.77,7.29C117.62,69.54,120.67,72.19,123.96,72.19z"/>
	<path class="st0" d="M143.1,81c-2.65,0-4.91-0.69-6.87-1.67l-0.57-2.76l0.07-0.04c2.51,1.49,4.91,2.25,7.48,2.25
		c3.58,0,6.48-2.25,6.48-6.56v-1.85c-2.07,2.07-4.15,3.19-6.73,3.19c-4.66,0-8.02-3.59-8.02-8.52c0-5.55,4.33-9.25,9.34-9.25
		c2.15,0,3.9,0.65,5.69,1.71l1.65-1.41h0.43v16.14C152.05,77.88,148.37,81,143.1,81z M143.6,71.46c2.11,0,4.01-0.95,6.09-2.83v-9.1
		c-1.75-1.09-3.44-1.67-5.37-1.67c-3.9,0-6.98,3.08-6.98,7.03C137.34,68.82,139.99,71.46,143.6,71.46z"/>
	<path class="st0" d="M163.68,74.4c-5.41,0-9.02-3.66-9.02-9.39c0-5.04,3.47-9.43,8.52-9.43c5.3,0,7.98,4.39,7.98,9.21
		c0,0.36-0.04,0.87-0.07,1.23h-14c0.43,3.99,3.11,6.16,6.84,6.16c2.33,0,4.69-0.98,6.51-2.21l0.07,0.04l-0.86,2.68
		C167.94,73.71,166.12,74.4,163.68,74.4z M157.02,64.17h11.74c-0.18-3.66-2.11-6.45-5.69-6.45
		C159.67,57.72,157.27,60.62,157.02,64.17z"/>
	<path class="st0" d="M179.96,74.4c-2.79,0-5.08-1.78-5.08-5.48V58.19h-3.08v-2.1h3.08v-4.25l2.33-0.91v5.15h7.41v2.1h-7.41v10.62
		c0,2.32,1.36,3.41,3.19,3.41c1.65,0,3.08-0.83,4.3-1.96l0.07,0.04l-0.57,2.65C183.22,73.68,181.75,74.4,179.96,74.4z"/>
	<path class="st0" d="M192.55,47.53l2.4-0.91V74h-2.4V47.53z"/>
	<path class="st0" d="M210.74,70.85c-2.76,2.28-5.16,3.48-7.59,3.48c-2.94,0-5.23-1.78-5.23-4.71c0-3.23,2.4-5.98,12.82-6.2v-0.43
		c0-3.3-1.65-5.04-4.51-5.04c-2.04,0-4.15,0.8-6.48,2.61l-0.07-0.04l0.5-2.76c1.72-1.16,3.76-2.03,6.37-2.03
		c4.04,0,6.55,2.47,6.55,7.11V73.6l-2.36,0.65V70.85z M203.58,72.26c1.75,0,3.94-0.83,7.16-3.05v-4.14
		c-8.77,0.4-10.46,2.43-10.46,4.42C200.28,71.24,201.71,72.26,203.58,72.26z"/>
	<path class="st0" d="M224.62,74.29c-2.01,0-3.83-0.65-5.62-1.67L217.42,74h-0.47V47.53l2.4-0.91v12.33
		c2.07-2.14,4.04-3.23,6.62-3.23c4.33,0,8.02,3.63,8.02,8.92C234,70.48,229.7,74.29,224.62,74.29z M219.36,60.66v9.94
		c1.75,1.05,3.44,1.6,5.22,1.6c3.98,0,7.02-3.19,7.02-7.4c0-4.28-2.9-6.89-6.27-6.89C223.22,57.9,221.43,58.81,219.36,60.66z"/>
</g>
<g>
	<path class="st1" d="M219.11,36.17c0,1.07-0.86,1.94-1.91,1.94c-0.81,0-1.5-0.52-1.77-1.24l-18.5,3.33
		c-0.02,1.07-0.86,1.91-1.91,1.91c-0.83,0-1.55-0.55-1.79-1.29l-16.95,2.61c-0.05,1.02-0.88,1.81-1.89,1.81
		c-0.86,0-1.57-0.57-1.82-1.34l-19.77,1.86c-0.15,0.89-0.93,1.59-1.86,1.59c-1.05,0-1.89-0.84-1.91-1.91l-15.87-4.4
		c-0.29,0.65-0.96,1.07-1.69,1.07c-0.76,0-1.45-0.47-1.74-1.14L100.6,47.5v0.02c0,1.07-0.86,1.94-1.91,1.94
		c-1.06,0-1.91-0.87-1.91-1.94c0-0.37,0.1-0.72,0.29-1.02L80.36,30.53c-0.29,0.22-0.69,0.35-1.1,0.35c-0.76,0-1.42-0.45-1.72-1.12
		L35.66,40.04c0.02,0.05,0.02,0.07,0.02,0.12c0,1.07-0.86,1.94-1.91,1.94c-0.76,0-1.45-0.47-1.74-1.14l-8.49,2.19
		c0.02,0.05,0.02,0.07,0.02,0.12c0,1.07-0.86,1.94-1.91,1.94s-1.91-0.87-1.91-1.94c0-1.07,0.86-1.94,1.91-1.94
		c0.74,0,1.4,0.42,1.69,1.07l8.51-2.19c0-0.02,0-0.02,0-0.05c0-1.07,0.86-1.94,1.91-1.94c0.74,0,1.4,0.42,1.72,1.07l41.85-10.29
		v-0.07c0-1.07,0.86-1.94,1.91-1.94c1.08,0,1.94,0.87,1.94,1.94c0,0.37-0.1,0.75-0.29,1.04l16.68,15.95
		c0.32-0.22,0.69-0.35,1.1-0.35c0.76,0,1.45,0.47,1.74,1.14l29.12-6.53v-0.02c0-1.07,0.86-1.94,1.91-1.94
		c1.05,0,1.91,0.87,1.91,1.94c0,0.05,0,0.07-0.02,0.12l15.82,4.37c0.29-0.7,0.98-1.19,1.77-1.19c0.91,0,1.67,0.65,1.86,1.52
		l19.7-1.86c0.07-0.99,0.88-1.76,1.89-1.76c0.83,0,1.55,0.55,1.79,1.29l16.95-2.61c0.05-1.02,0.88-1.81,1.89-1.81
		c0.81,0,1.5,0.5,1.77,1.22l18.5-3.35c0.05-1.07,0.88-1.89,1.91-1.89C218.25,34.21,219.11,35.08,219.11,36.17z"/>
</g>
</svg>
